<?xml version="1.0" encoding="utf-8"?>
<!-- Generator: Adobe Illustrator 27.7.0, SVG Export Plug-In . SVG Version: 6.00 Build 0)  -->
<svg version="1.1" id="Layer_1" xmlns="http://www.w3.org/2000/svg" xmlns:xlink="http://www.w3.org/1999/xlink" x="0px" y="0px"
	 viewBox="0 0 598 592" style="enable-background:new 0 0 598 592;" xml:space="preserve">
<style type="text/css">
	.st0{fill:#FFFFFF;}
</style>
<circle class="st0" cx="291.4" cy="289.9" r="283.9"/>
<path d="M499,285c0,45.9-14.9,88.3-40,122.7l126.6,126.7c12.5,12.5,12.5,32.8,0,45.3c-12.5,12.5-32.8,12.5-45.3,0L413.7,453
	c-34.4,25.2-76.8,40-122.7,40c-114.9,0-208-93.1-208-208S176.1,77,291,77S499,170.1,499,285z M267,373c0,13.3,10.7,24,24,24
	s24-10.7,24-24v-64h64c13.3,0,24-10.7,24-24s-10.7-24-24-24h-64v-64c0-13.3-10.7-24-24-24s-24,10.7-24,24v64h-64
	c-13.3,0-24,10.7-24,24s10.7,24,24,24h64V373z"/>
</svg>
